<svg xmlns="http://www.w3.org/2000/svg" viewBox="0 0 400 400" role="img" aria-labelledby="title desc">
  <title id="title">Access the Walk logo</title>
  <desc id="desc">A white monogram with a cross on a black background.</desc>
  <rect width="400" height="400" fill="#050505" />
  <path d="M84 286 202 92h114l-19 32h-74v174h-42V124h-47l-79 162z" fill="#fff" />
  <path d="M159 202h116v28H159z" fill="#fff" />
  <path
    d="M266 282c-22 18-49 27-81 27-73 0-127-46-127-110s55-110 127-110c31 0 59 8 80 24l-18 28c-16-11-35-18-60-18-49 0-86 31-86 76s38 76 87 76c24 0 43-7 58-18z"
    fill="#fff"
  />
</svg>
