<svg width="75" height="40" viewBox="0 0 75 40" fill="none" xmlns="http://www.w3.org/2000/svg">
<g clip-path="url(#clip0_23_2)">
<path d="M92.1503 47.5802H-18.0645V-7.9032H92.1503V47.5802ZM20.5849 4.11829C17.1916 4.11831 14.2848 4.70865 11.8652 5.88879C9.47487 7.03968 7.64487 8.78118 6.37592 11.1124C5.13647 13.4143 4.51654 16.3214 4.51654 19.8331C4.51661 25.1448 5.78533 29.0995 8.32318 31.6964C10.8905 34.2931 14.624 35.5909 19.5224 35.5909C21.0863 35.5909 22.4891 35.4591 23.7285 35.1935C24.9971 34.9279 26.1479 34.5138 27.1806 33.9532C28.2428 33.3926 29.2317 32.6993 30.1464 31.8732L30.8994 35.0607H35.5029V18.3722H19.6113V23.9493H27.8007V24.171C27.8007 25.2627 27.4752 26.2073 26.8261 27.004C26.2065 27.771 25.3503 28.3615 24.2587 28.7745C23.1967 29.1875 21.9868 29.3946 20.6298 29.3947C18.8891 29.3947 17.4129 29.0844 16.2031 28.465C15.0227 27.8158 14.137 26.8559 13.5468 25.587C12.9567 24.3181 12.6611 22.7393 12.6611 20.8507V18.9034C12.6611 17.4869 12.8238 16.2471 13.1484 15.1847C13.5025 14.1224 14.0195 13.2222 14.6982 12.4845C15.3769 11.747 16.2329 11.2009 17.2656 10.8468C18.3276 10.4929 19.5375 10.3156 20.8945 10.3156C21.8091 10.3156 22.6806 10.434 23.5068 10.67C24.3328 10.8766 25.0562 11.2011 25.6757 11.6437C26.3248 12.0568 26.8266 12.5883 27.1806 13.2374C27.5345 13.8569 27.7118 14.565 27.7119 15.3615H35.5029C35.5028 13.473 35.1186 11.8352 34.3515 10.4484C33.5843 9.03201 32.5069 7.86607 31.1201 6.95129C29.7332 6.00712 28.1396 5.29844 26.3398 4.82629C24.5398 4.35416 22.621 4.11832 20.5849 4.11829ZM53.456 4.11829C51.4199 4.11829 49.5011 4.3542 47.7011 4.82629C45.9012 5.2984 44.3077 6.00715 42.9208 6.95129C41.5339 7.86606 40.4567 9.03199 39.6894 10.4484C38.9222 11.8353 38.5381 13.4729 38.538 15.3615H46.329C46.3291 14.5649 46.5063 13.857 46.8603 13.2374C47.2144 12.5883 47.716 12.0568 48.3652 11.6437C48.9848 11.2011 49.708 10.8766 50.5341 10.67C51.3602 10.4341 52.2309 10.3156 53.1454 10.3156C54.5026 10.3156 55.7131 10.4928 56.7753 10.8468C57.8079 11.2009 58.6641 11.7469 59.3427 12.4845C60.0213 13.2222 60.5384 14.1224 60.8925 15.1847C61.2171 16.247 61.3798 17.487 61.3798 18.9034V20.8507C61.3798 22.7392 61.0842 24.3181 60.4941 25.587C59.9039 26.8559 59.0181 27.8157 57.8378 28.465C56.6281 29.0845 55.1518 29.3946 53.4111 29.3947C52.0539 29.3946 50.8434 29.1875 49.7812 28.7745C48.6896 28.3614 47.8334 27.7711 47.2138 27.004C46.5647 26.2073 46.2402 25.2628 46.2402 24.171V23.9493H54.4296V18.3722H38.538V35.0607H43.1415L43.8945 31.8732C44.8092 32.6993 45.7981 33.3926 46.8603 33.9532C47.893 34.5138 49.0437 34.9279 50.3124 35.1935C51.5518 35.459 52.9546 35.5909 54.5185 35.5909C59.4168 35.5908 63.1504 34.2932 65.7177 31.6964C68.2554 29.0995 69.5243 25.1447 69.5244 19.8331C69.5244 16.3215 68.9043 13.4142 67.665 11.1124C66.3961 8.7812 64.5659 7.03971 62.1757 5.88879C59.7561 4.70857 56.8492 4.11837 53.456 4.11829Z" fill="white"/>
</g>
<defs>
<clipPath id="clip0_23_2">
<rect width="74.086" height="40" rx="18.2796" fill="white"/>
</clipPath>
</defs>
</svg>
