<svg width="780" height="1096" viewBox="0 0 780 1096" fill="none" xmlns="http://www.w3.org/2000/svg">
<path d="M392.7 547.9L254.2 2.80409e-05L167.9 2.42686e-05L392.7 547.9Z" fill="white"/>
<path d="M392.2 547.1L34.5002 1.84593e-05L0.000231013 1.69513e-05L0.000226611 100.7L392.2 547.1Z" fill="white"/>
<path d="M391.6 546.5L-0.000348821 242.6L-0.000352344 323.2L391.6 546.5Z" fill="white"/>
<path d="M390.8 546.1L-0.000135198 412.9L-0.000137794 472.3L390.8 546.1Z" fill="white"/>
<path d="M389.9 546L0.000444579 547.3L0.000442149 602.9L389.9 546Z" fill="white"/>
<path d="M389 546.2L4.19935e-05 681.5L3.91304e-05 747L389 546.2Z" fill="white"/>
<path d="M388.2 546.7L0.000217668 852L0.000213253 953L388.2 546.7Z" fill="white"/>
<path d="M135.3 1096L387.6 547.4L33.7996 1096L135.3 1096Z" fill="white"/>
<path d="M387.3 548.3L252.6 1096L332.7 1096L387.3 548.3Z" fill="white"/>
<path d="M387.3 549.2L436.9 1096L516.6 1096L387.3 549.2Z" fill="white"/>
<path d="M387.6 550.1L632.7 1096L732.7 1096L387.6 550.1Z" fill="white"/>
<path d="M780 968.4L780 864.7L388.2 550.8L780 968.4Z" fill="white"/>
<path d="M388.9 551.3L780 757.7L780 691.3L388.9 551.3Z" fill="white"/>
<path d="M389.8 551.5L780 612.1L780 556.3L389.8 551.5Z" fill="white"/>
<path d="M390.7 551.4L780 481.6L780 422.7L390.7 551.4Z" fill="white"/>
<path d="M391.5 551.1L780 334.2L780 255.2L391.5 551.1Z" fill="white"/>
<path d="M759.4 3.31944e-05L392.2 550.5L780 117.2L780 3.40949e-05L759.4 3.31944e-05Z" fill="white"/>
<path d="M392.6 549.7L624 3.40949e-05L536.9 3.02876e-05L392.6 549.7Z" fill="white"/>
<path d="M392.8 548.6L392.8 548.8L439 3.40949e-05L351.6 3.02745e-05L392.8 548.6Z" fill="white"/>
</svg>
